<svg width="62" height="62" viewBox="0 0 62 62" fill="none" xmlns="http://www.w3.org/2000/svg">
<path d="M15.391 17.7402C15.5484 18.6727 16.3598 19.375 17.3285 19.375H19.3266C20.5133 19.375 21.4578 18.3457 21.3004 17.1953C20.8402 13.7805 19.3145 10.632 16.8684 8.14961C15.1246 6.36953 14.0105 4.11719 13.6715 1.67109C13.5383 0.714453 12.7148 0 11.7219 0H9.73594C8.54922 0 7.62891 1.0293 7.76211 2.17969C8.23438 6.04258 9.9418 9.60273 12.6785 12.4C14.1316 13.8773 15.0641 15.7301 15.391 17.7402ZM28.9535 17.7402C29.1109 18.6727 29.9223 19.375 30.891 19.375H32.8891C34.0758 19.375 35.0203 18.3457 34.8629 17.1953C34.4027 13.7805 32.877 10.632 30.4309 8.14961C28.6871 6.36953 27.573 4.11719 27.234 1.67109C27.1008 0.714453 26.2773 0 25.2844 0H23.2984C22.1117 0 21.1793 1.0293 21.3246 2.17969C21.7969 6.04258 23.5043 9.60273 26.241 12.4C27.6941 13.8773 28.6266 15.7301 28.9535 17.7402ZM48.4375 23.25H3.875C1.73164 23.25 0 24.9816 0 27.125V50.375C0 56.793 5.20703 62 11.625 62H34.875C41.293 62 46.5 56.793 46.5 50.375H48.4375C55.9211 50.375 62 44.2961 62 36.8125C62 29.3289 55.9211 23.25 48.4375 23.25ZM48.4375 42.625H46.5V31H48.4375C51.6465 31 54.25 33.6035 54.25 36.8125C54.25 40.0215 51.6465 42.625 48.4375 42.625Z" fill="black"/>
</svg>
